<?xml version="1.0" encoding="UTF-8" standalone="no"?>
<svg
   width="400"
   height="400"
   viewBox="0 0 399.99999 400.00001"
   version="1.1"
   id="svg97"
   sodipodi:docname="logo-dark-background.svg"
   inkscape:export-filename="logo-dark-background.svg"
   inkscape:export-xdpi="96"
   inkscape:export-ydpi="96"
   inkscape:version="1.2.1 (9c6d41e410, 2022-07-14)"
   xmlns:inkscape="http://www.inkscape.org/namespaces/inkscape"
   xmlns:sodipodi="http://sodipodi.sourceforge.net/DTD/sodipodi-0.dtd"
   xmlns="http://www.w3.org/2000/svg"
   xmlns:svg="http://www.w3.org/2000/svg">
  <defs
     id="defs101" />
  <sodipodi:namedview
     id="namedview99"
     pagecolor="#000000"
     bordercolor="#ffffff"
     borderopacity="0"
     inkscape:showpageshadow="2"
     inkscape:pageopacity="0"
     inkscape:pagecheckerboard="false"
     inkscape:deskcolor="#d1d1d1"
     showgrid="false"
     inkscape:zoom="1.63"
     inkscape:cx="290.18405"
     inkscape:cy="197.54601"
     inkscape:window-width="1920"
     inkscape:window-height="1080"
     inkscape:window-x="0"
     inkscape:window-y="0"
     inkscape:window-maximized="1"
     inkscape:current-layer="layer2">
    <inkscape:grid
       type="xygrid"
       id="grid999" />
  </sodipodi:namedview>
  <g
     inkscape:groupmode="layer"
     id="layer1"
     inkscape:label="circle">
    <circle
       style="fill:#ffffff;fill-opacity:1;stroke:#000000;stroke-width:1.79336;stroke-opacity:0"
       id="path313"
       cx="200.89999"
       cy="200.90001"
       r="199.10332" />
  </g>
  <g
     inkscape:groupmode="layer"
     id="layer2"
     inkscape:label="symbol">
    <g
       id="svgGroup"
       stroke-linecap="round"
       fill-rule="evenodd"
       font-size="12px"
       stroke="#ffffff"
       stroke-width="0"
       fill="#000000"
       transform="matrix(2.1630034,0,0,2.1630034,12.62769,55.843624)">
      <path
         d="m 80.519545,57.567132 h -46.81 c -0.69596,0.0086 -1.385058,-0.138308 -2.017,-0.43 -0.485652,-0.231527 -0.927254,-0.545894 -1.305,-0.929 -0.906,-0.906 -1.359,-2.013333 -1.359,-3.322 -0.0059,-0.574002 0.08014,-1.145247 0.255,-1.692 0.221689,-0.672754 0.600085,-1.283192 1.104,-1.781 0.906,-0.906 2.013333,-1.359 3.322,-1.359 h 47.867 v -31.71 h -53.756 c -1.21387,0.02022 -2.381849,-0.463476 -3.226,-1.336 -0.03242,-0.03259 -0.06442,-0.06559 -0.096,-0.099 -0.906,-0.956 -1.359,-2.088333 -1.359,-3.397 -0.0059,-0.574002 0.08015,-1.145247 0.255,-1.6919998 0.221689,-0.6727538 0.600085,-1.2831916 1.104,-1.781 0.906,-0.906 2.013333,-1.359 3.322,-1.359 H 145.44955 c 0.69596,-0.0086 1.38506,0.1383085 2.017,0.43 0.48565,0.2315273 0.92725,0.545894 1.305,0.929 0.7914,0.789307 1.26721,1.8405164 1.338,2.9559998 0.0142,0.171963 0.0212,0.344449 0.021,0.517 0,1.308667 -0.453,2.441 -1.359,3.397 -0.50097,0.543793 -1.12858,0.955331 -1.827,1.198 -0.48193,0.160582 -0.98703,0.240655 -1.495,0.237 H 91.542545 v 31.71 h 48.169005 c 0.69596,-0.0086 1.38506,0.138308 2.017,0.43 0.48565,0.231527 0.92725,0.545894 1.305,0.929 0.7914,0.789307 1.26721,1.840517 1.338,2.956 0.0142,0.171963 0.0212,0.344449 0.021,0.517 0.009,0.69596 -0.13831,1.385058 -0.43,2.017 -0.23153,0.485652 -0.54589,0.927254 -0.929,1.305 -0.906,0.906 -2.01333,1.359 -3.322,1.359 H 92.599545 c 1.53946,6.953075 4.264237,13.58929 8.054995,19.618 0.91332,1.471885 1.87826,2.911112 2.893,4.315 5.486,7.600667 12.281,14.395666 20.38501,20.384998 8.10333,5.99 16.93667,10.797 26.5,14.421 1.3589,0.46407 2.47071,1.46072 3.08,2.761 0.005,0.0106 0.01,0.0213 0.015,0.032 0.65467,1.35933 0.68,2.74367 0.076,4.153 -0.23475,0.55295 -0.555,1.06554 -0.949,1.519 -0.64193,0.7254 -1.50022,1.22502 -2.448,1.425 -0.56264,0.12855 -1.13786,0.19395 -1.715,0.195 -0.97333,0 -1.937,-0.19067 -2.891,-0.572 -10.69932,-4.17873 -20.70384,-9.95426 -29.67301,-17.13 -2.43079,-1.96154 -4.77311,-4.03025 -7.02,-6.2 C 98.639543,92.573798 91.190212,81.223799 86.559545,68.439132 c -4.083511,11.115852 -10.391799,21.281795 -18.539,29.876 -1.211301,1.297723 -2.456053,2.563818 -3.733,3.796998 -10.318667,9.966 -22.575,17.91867 -36.769,23.858 -0.479194,0.19958 -0.974693,0.35749 -1.481,0.472 -0.514,0.114 -1.015333,0.171 -1.504,0.171 -0.600717,0.001 -1.198175,-0.0883 -1.772,-0.266 -0.74978,-0.22113 -1.435387,-0.61933 -1.999,-1.161 -0.469546,-0.46627 -0.842052,-1.02095 -1.096,-1.632 -0.164144,-0.37831 -0.286859,-0.77328 -0.366,-1.178 -0.186,-0.96933 -0.074,-1.914 0.336,-2.834 0.0099,-0.0217 0.01986,-0.0434 0.03,-0.065 0.604,-1.30867 1.711333,-2.265 3.322,-2.869 6.845333,-2.51667 13.414,-5.81367 19.706,-9.891 6.291333,-4.07667 12.029333,-8.707333 17.214,-13.891998 5.184,-5.184 9.588,-10.771 13.212,-16.761 2.637185,-4.312598 4.72027,-8.940405 6.2,-13.774 0.470056,-1.555622 0.870125,-3.131538 1.199,-4.723 z"
         id="path94"
         sodipodi:nodetypes="cccccccsccccccccscccccccccccccccccscccccsccccccccccccccccccccccsccc" />
    </g>
  </g>
</svg>
