<svg width="286.225" height="137.411" viewBox="0 0 286.225 137.411" xmlns="http://www.w3.org/2000/svg">
    <g id="svgGroup" stroke-linecap="round" fill-rule="evenodd" font-size="9pt" stroke="#ffffff" stroke-width="0"
        fill="#000000">
        <path
            d="M 61.306 66.441 L 14.496 66.441 A 4.675 4.675 0 0 1 12.479 66.011 A 4.632 4.632 0 0 1 11.174 65.082 Q 9.815 63.723 9.815 61.76 A 5.372 5.372 0 0 1 10.07 60.068 A 4.47 4.47 0 0 1 11.174 58.287 Q 12.533 56.928 14.496 56.928 L 62.363 56.928 L 62.363 25.218 L 8.607 25.218 A 4.387 4.387 0 0 1 5.381 23.882 A 5.391 5.391 0 0 1 5.285 23.783 Q 3.926 22.349 3.926 20.386 A 5.372 5.372 0 0 1 4.181 18.694 A 4.47 4.47 0 0 1 5.285 16.913 Q 6.644 15.554 8.607 15.554 L 126.236 15.554 A 4.675 4.675 0 0 1 128.253 15.984 A 4.632 4.632 0 0 1 129.558 16.913 A 4.585 4.585 0 0 1 130.896 19.869 A 6.164 6.164 0 0 1 130.917 20.386 Q 130.917 22.349 129.558 23.783 A 4.486 4.486 0 0 1 127.731 24.981 A 4.624 4.624 0 0 1 126.236 25.218 L 72.329 25.218 L 72.329 56.928 L 120.498 56.928 A 4.675 4.675 0 0 1 122.515 57.358 A 4.632 4.632 0 0 1 123.82 58.287 A 4.585 4.585 0 0 1 125.158 61.243 A 6.164 6.164 0 0 1 125.179 61.76 A 4.675 4.675 0 0 1 124.749 63.777 A 4.632 4.632 0 0 1 123.82 65.082 Q 122.461 66.441 120.498 66.441 L 73.386 66.441 A 62.057 62.057 0 0 0 81.441 86.059 A 73.699 73.699 0 0 0 84.334 90.374 Q 92.563 101.775 104.719 110.759 Q 116.874 119.744 131.219 125.18 A 5.289 5.289 0 0 1 134.299 127.941 A 6.462 6.462 0 0 1 134.314 127.973 Q 135.296 130.012 134.39 132.126 A 5.73 5.73 0 0 1 133.441 133.645 A 4.513 4.513 0 0 1 130.993 135.07 A 7.763 7.763 0 0 1 129.278 135.265 Q 127.818 135.265 126.387 134.693 A 113.725 113.725 0 0 1 96.714 117.563 A 105.309 105.309 0 0 1 89.694 111.363 Q 74.292 96.49 67.346 77.313 A 87.063 87.063 0 0 1 48.807 107.189 A 102.678 102.678 0 0 1 45.074 110.986 Q 29.596 125.935 8.305 134.844 A 9.037 9.037 0 0 1 6.824 135.316 Q 6.053 135.487 5.32 135.487 A 5.942 5.942 0 0 1 3.548 135.221 A 4.875 4.875 0 0 1 1.549 134.06 A 5.009 5.009 0 0 1 0.453 132.428 A 5.715 5.715 0 0 1 0.087 131.25 Q -0.192 129.796 0.423 128.416 A 5.431 5.431 0 0 1 0.453 128.351 Q 1.359 126.388 3.775 125.482 Q 14.043 121.707 23.481 115.591 Q 32.918 109.476 40.695 101.699 Q 48.471 93.923 53.907 84.938 A 60.156 60.156 0 0 0 60.107 71.164 A 54.365 54.365 0 0 0 61.306 66.441 Z M 281.313 50.435 L 155.379 50.435 A 3.713 3.713 0 0 1 153.955 50.169 A 3.453 3.453 0 0 1 152.661 49.227 Q 151.604 48.019 151.604 46.358 A 4.307 4.307 0 0 1 151.852 44.873 A 3.82 3.82 0 0 1 152.661 43.564 Q 153.718 42.432 155.379 42.432 L 194.337 42.432 Q 192.978 39.261 191.242 35.939 A 1098.498 1098.498 0 0 0 190.013 33.596 Q 189.533 32.682 189.104 31.871 A 521.522 521.522 0 0 0 188.297 30.352 A 3.929 3.929 0 0 1 187.915 29.37 Q 187.688 28.407 188.029 27.42 A 4.452 4.452 0 0 1 188.222 26.954 A 4.904 4.904 0 0 1 189.135 25.623 A 4.177 4.177 0 0 1 190.713 24.614 A 4.801 4.801 0 0 1 192.719 24.17 Q 193.44 24.17 194.186 24.387 A 4.257 4.257 0 0 1 196.787 26.506 A 5.733 5.733 0 0 1 196.904 26.728 Q 197.961 28.691 199.32 31.635 Q 200.679 34.58 202.038 37.449 A 76.219 76.219 0 0 1 202.972 39.494 Q 203.415 40.504 203.765 41.399 A 36.807 36.807 0 0 1 204.152 42.432 L 229.973 42.432 A 178.22 178.22 0 0 0 230.53 41.389 Q 231.408 39.733 232.54 37.524 Q 234.05 34.58 235.485 31.635 A 72.119 72.119 0 0 0 236.465 29.544 Q 236.903 28.566 237.247 27.704 A 33.017 33.017 0 0 0 237.674 26.577 Q 238.429 24.614 240.317 24.01 Q 242.171 23.416 243.953 24.135 A 5.969 5.969 0 0 1 244.016 24.161 A 4.647 4.647 0 0 1 246.467 26.222 A 5.958 5.958 0 0 1 246.583 26.426 A 3.702 3.702 0 0 1 246.972 27.479 Q 247.147 28.358 246.841 29.278 A 4.71 4.71 0 0 1 246.583 29.899 Q 245.873 31.522 244.788 33.656 A 134.541 134.541 0 0 1 243.639 35.863 Q 241.751 39.412 240.09 42.432 L 281.313 42.432 Q 282.974 42.432 284.107 43.564 A 3.788 3.788 0 0 1 285.239 46.306 A 4.838 4.838 0 0 1 285.239 46.358 Q 285.239 48.019 284.107 49.227 A 3.664 3.664 0 0 1 281.468 50.432 A 4.468 4.468 0 0 1 281.313 50.435 Z M 273.159 23.255 L 164.137 23.255 A 3.665 3.665 0 0 1 161.451 22.157 A 4.428 4.428 0 0 1 161.344 22.047 A 4.364 4.364 0 0 1 160.55 20.89 A 3.688 3.688 0 0 1 160.211 19.329 Q 160.211 17.668 161.344 16.535 A 3.788 3.788 0 0 1 164.085 15.403 A 4.838 4.838 0 0 1 164.137 15.403 L 213.665 15.403 L 213.665 4.682 A 5.046 5.046 0 0 1 213.902 3.101 A 4.132 4.132 0 0 1 215.1 1.284 Q 216.534 0.001 218.497 0.001 A 5.695 5.695 0 0 1 220.139 0.227 A 4.522 4.522 0 0 1 221.97 1.284 Q 223.329 2.568 223.329 4.682 L 223.329 15.403 L 273.159 15.403 Q 274.82 15.403 275.953 16.535 A 3.788 3.788 0 0 1 277.085 19.277 A 4.838 4.838 0 0 1 277.085 19.329 A 3.788 3.788 0 0 1 276.202 21.759 A 5.015 5.015 0 0 1 275.952 22.047 A 3.664 3.664 0 0 1 273.314 23.252 A 4.468 4.468 0 0 1 273.159 23.255 Z M 235.711 97.547 L 202.189 97.547 A 89.35 89.35 0 0 1 196.767 97.394 Q 191.674 97.083 188.255 96.141 A 21.557 21.557 0 0 1 187.165 95.81 A 14.067 14.067 0 0 1 183.714 94.147 A 10.417 10.417 0 0 1 179.992 89.77 A 18.088 18.088 0 0 1 178.874 86.41 Q 178.029 82.819 178.029 77.766 A 50.658 50.658 0 0 1 178.216 73.257 Q 178.617 68.782 179.879 65.864 A 14.043 14.043 0 0 1 179.992 65.61 A 10.661 10.661 0 0 1 184.971 60.489 A 15.231 15.231 0 0 1 187.165 59.57 Q 192.374 57.834 202.189 57.834 L 235.711 57.834 A 89.35 89.35 0 0 1 241.133 57.987 Q 246.226 58.297 249.645 59.239 A 21.557 21.557 0 0 1 250.735 59.57 A 14.067 14.067 0 0 1 254.186 61.234 A 10.417 10.417 0 0 1 257.908 65.61 A 17.993 17.993 0 0 1 259.026 68.988 Q 259.817 72.379 259.867 77.108 A 61.033 61.033 0 0 1 259.871 77.766 A 48.865 48.865 0 0 1 259.679 82.247 Q 259.272 86.66 257.997 89.572 A 14.235 14.235 0 0 1 257.908 89.77 A 10.661 10.661 0 0 1 252.929 94.892 A 15.231 15.231 0 0 1 250.736 95.81 Q 245.526 97.547 235.711 97.547 Z M 190.26 118.083 L 190.26 107.815 A 5.289 5.289 0 0 1 190.443 106.384 A 3.876 3.876 0 0 1 191.619 104.493 Q 192.978 103.285 194.79 103.285 A 5.229 5.229 0 0 1 196.371 103.514 A 4.281 4.281 0 0 1 198.036 104.493 A 3.98 3.98 0 0 1 199.216 106.683 A 5.847 5.847 0 0 1 199.32 107.815 L 199.32 117.026 A 21.049 21.049 0 0 0 199.491 119.795 Q 199.676 121.191 200.064 122.346 A 9.396 9.396 0 0 0 200.906 124.198 Q 202.125 126.231 205.087 127.326 A 16.212 16.212 0 0 0 207.021 127.898 A 30.227 30.227 0 0 0 209.916 128.409 Q 213.086 128.827 217.583 128.925 A 132.254 132.254 0 0 0 220.46 128.955 A 118.068 118.068 0 0 0 225.327 128.861 Q 229.85 128.674 232.959 128.111 A 29.794 29.794 0 0 0 233.673 127.973 Q 237.258 127.233 239.471 125.506 A 9.074 9.074 0 0 0 240.77 124.274 A 12.267 12.267 0 0 0 242.366 121.853 Q 243.002 120.612 243.513 119.072 A 30.155 30.155 0 0 0 244.318 116.12 Q 244.62 114.157 246.281 113.326 Q 247.942 112.496 249.905 112.949 Q 253.982 113.855 252.925 118.385 A 33.237 33.237 0 0 1 251.774 123.194 Q 250.955 125.712 249.768 127.709 A 16.968 16.968 0 0 1 248.319 129.785 A 15.768 15.768 0 0 1 243.511 133.67 Q 241.498 134.753 239.001 135.475 A 28.967 28.967 0 0 1 238.278 135.674 Q 231.634 137.411 220.46 137.411 Q 209.424 137.411 202.976 135.86 A 31.601 31.601 0 0 1 201.963 135.599 Q 195.394 133.787 192.827 129.559 A 15.774 15.774 0 0 1 191.124 125.475 Q 190.26 122.287 190.26 118.083 Z M 202.491 89.997 L 235.711 89.997 Q 244.019 89.997 247.007 88.32 A 5.604 5.604 0 0 0 247.112 88.26 Q 250.056 86.524 250.509 80.937 L 187.844 80.937 A 17.093 17.093 0 0 0 188.16 83.489 Q 188.825 86.685 190.752 88.042 A 4.989 4.989 0 0 0 191.091 88.26 A 8.5 8.5 0 0 0 193.026 89.055 Q 196.265 89.997 202.491 89.997 Z M 187.844 73.991 L 250.358 73.991 A 15.682 15.682 0 0 0 249.976 71.579 Q 249.673 70.353 249.174 69.419 A 5.429 5.429 0 0 0 246.961 67.12 Q 244.062 65.559 235.968 65.535 A 85.673 85.673 0 0 0 235.711 65.535 L 202.491 65.535 A 68.676 68.676 0 0 0 198.892 65.622 Q 193.496 65.906 191.242 67.12 A 5.429 5.429 0 0 0 189.028 69.419 Q 188.085 71.183 187.844 73.991 Z M 151.773 130.338 A 3.845 3.845 0 0 0 153.265 133.032 Q 154.926 134.24 156.814 134.089 A 4.957 4.957 0 0 0 158.791 133.503 A 6.127 6.127 0 0 0 160.211 132.428 Q 161.815 130.823 163.656 128.777 A 146.982 146.982 0 0 0 165.949 126.161 Q 169.12 122.462 172.065 118.46 Q 173.905 115.959 175.244 113.842 A 46.005 46.005 0 0 0 176.67 111.439 A 5.826 5.826 0 0 0 176.887 110.998 Q 177.526 109.548 177.199 108.041 A 3.748 3.748 0 0 0 176.333 106.311 A 4.326 4.326 0 0 0 175.16 105.399 A 5.084 5.084 0 0 0 175.127 105.379 Q 173.631 104.497 171.914 104.87 Q 170.177 105.248 169.12 106.758 A 46.426 46.426 0 0 1 168.237 108.217 Q 167.492 109.401 166.572 110.727 A 100.498 100.498 0 0 1 164.59 113.477 Q 161.721 117.328 158.626 120.952 A 111.257 111.257 0 0 1 158.216 121.428 Q 155.35 124.746 152.812 127.143 A 3.669 3.669 0 0 0 152.092 128.144 Q 151.661 129.036 151.755 130.163 A 5.087 5.087 0 0 0 151.773 130.338 Z M 281.609 130.998 A 4.405 4.405 0 0 0 284.635 129.861 A 5.897 5.897 0 0 0 284.829 129.678 A 4.425 4.425 0 0 0 286.22 126.614 A 4.945 4.945 0 0 0 286.224 126.417 Q 286.224 125.477 285.861 124.632 A 5.179 5.179 0 0 0 284.937 123.217 A 64.577 64.577 0 0 0 283.339 121.576 Q 282.466 120.709 281.446 119.749 A 144.118 144.118 0 0 0 278.972 117.479 Q 275.273 114.157 271.498 110.835 Q 267.723 107.513 265.156 105.55 A 4.32 4.32 0 0 0 262.197 104.413 A 5.083 5.083 0 0 0 261.985 104.417 A 4.962 4.962 0 0 0 261.872 104.423 A 4.108 4.108 0 0 0 258.965 105.852 A 3.472 3.472 0 0 0 258.096 107.276 A 4.261 4.261 0 0 0 257.908 108.57 A 3.977 3.977 0 0 0 258.16 109.993 A 4.093 4.093 0 0 0 259.116 111.439 Q 261.834 113.553 265.458 116.875 Q 269.082 120.197 272.631 123.594 Q 274.959 125.824 276.67 127.631 A 61.573 61.573 0 0 1 278.293 129.408 Q 279.501 130.918 281.389 130.993 A 5.51 5.51 0 0 0 281.609 130.998 Z M 229.032 119.591 A 4.075 4.075 0 0 0 231.936 118.385 A 5.066 5.066 0 0 0 232.31 118.054 A 3.535 3.535 0 0 0 233.446 115.44 Q 233.446 113.704 232.087 112.496 Q 231.049 111.363 229.627 110.024 A 81.697 81.697 0 0 0 227.784 108.343 Q 225.141 106.003 222.423 103.738 A 224.057 224.057 0 0 0 220.798 102.396 Q 219.092 101.001 217.742 99.963 A 5.389 5.389 0 0 0 217.66 99.892 Q 216.412 98.826 214.849 98.826 A 4.673 4.673 0 0 0 214.647 98.83 Q 212.91 98.906 211.702 100.114 A 3.776 3.776 0 0 0 210.899 101.282 A 4.154 4.154 0 0 0 210.57 102.756 A 3.883 3.883 0 0 0 210.565 102.941 Q 210.565 104.404 211.702 105.399 Q 214.722 107.664 219.026 111.514 Q 221.782 113.981 223.827 116.045 A 59.689 59.689 0 0 1 225.896 118.234 Q 227.104 119.593 228.916 119.593 A 5.349 5.349 0 0 0 229.032 119.591 Z" />
    </g>
</svg>